<svg width="1155" height="200" viewBox="0 0 1155 200" fill="none" xmlns="http://www.w3.org/2000/svg">
<path d="M1135.32 57.214C1135.32 58.9235 1134.98 60.5205 1134.31 62.005C1133.68 63.4895 1132.8 64.794 1131.68 65.9187C1130.55 66.9983 1129.23 67.8755 1127.7 68.5503C1126.21 69.1801 1124.61 69.495 1122.91 69.495C1121.2 69.495 1119.58 69.1801 1118.05 68.5503C1116.56 67.8755 1115.26 66.9983 1114.13 65.9187C1113.05 64.794 1112.18 63.4895 1111.5 62.005C1110.87 60.5205 1110.56 58.9235 1110.56 57.214C1110.56 55.5496 1110.87 53.9751 1111.5 52.4906C1112.18 50.9611 1113.05 49.6565 1114.13 48.5769C1115.26 47.4523 1116.56 46.5751 1118.05 45.9453C1119.58 45.2705 1121.2 44.9331 1122.91 44.9331C1124.61 44.9331 1126.21 45.2705 1127.7 45.9453C1129.23 46.5751 1130.55 47.4523 1131.68 48.5769C1132.8 49.6565 1133.68 50.9611 1134.31 52.4906C1134.98 53.9751 1135.32 55.5496 1135.32 57.214ZM1132.15 149.119H1113.59V76.8501H1132.15V149.119Z" fill="black"/>
<path d="M1099.49 149.119H1095.04L1087.88 139.2C1086.13 140.775 1084.26 142.259 1082.28 143.654C1080.35 145.003 1078.3 146.195 1076.14 147.23C1073.98 148.22 1071.76 149.007 1069.46 149.592C1067.21 150.177 1064.92 150.469 1062.58 150.469C1057.49 150.469 1052.7 149.614 1048.21 147.905C1043.75 146.195 1039.84 143.721 1036.46 140.482C1033.14 137.198 1030.5 133.195 1028.57 128.471C1026.64 123.748 1025.67 118.372 1025.67 112.344C1025.67 106.721 1026.64 101.57 1028.57 96.8917C1030.5 92.1682 1033.14 88.1196 1036.46 84.7457C1039.84 81.3718 1043.75 78.7627 1048.21 76.9183C1052.7 75.0289 1057.49 74.0842 1062.58 74.0842C1064.92 74.0842 1067.23 74.3766 1069.53 74.9614C1071.82 75.5462 1074.05 76.356 1076.21 77.3906C1078.37 78.4253 1080.41 79.6399 1082.35 81.0344C1084.33 82.429 1086.17 83.936 1087.88 85.5554L1095.04 76.9858H1099.49V149.119ZM1080.93 112.344C1080.93 109.825 1080.44 107.396 1079.45 105.056C1078.5 102.672 1077.2 100.58 1075.53 98.7811C1073.87 96.9367 1071.91 95.4747 1069.66 94.395C1067.46 93.2704 1065.1 92.7081 1062.58 92.7081C1060.06 92.7081 1057.67 93.1354 1055.43 93.9901C1053.22 94.8449 1051.29 96.1044 1049.62 97.7689C1048 99.4333 1046.72 101.503 1045.78 103.977C1044.83 106.406 1044.36 109.195 1044.36 112.344C1044.36 115.493 1044.83 118.305 1045.78 120.779C1046.72 123.208 1048 125.255 1049.62 126.919C1051.29 128.584 1053.22 129.843 1055.43 130.698C1057.67 131.553 1060.06 131.98 1062.58 131.98C1065.1 131.98 1067.46 131.44 1069.66 130.361C1071.91 129.236 1073.87 127.774 1075.53 125.975C1077.2 124.13 1078.5 122.038 1079.45 119.699C1080.44 117.315 1080.93 114.863 1080.93 112.344Z" fill="black"/>
<path d="M1015.75 142.237C1015.75 143.856 1015.46 145.386 1014.87 146.825C1014.29 148.22 1013.48 149.434 1012.44 150.469C1011.41 151.504 1010.19 152.313 1008.8 152.898C1007.4 153.528 1005.9 153.843 1004.28 153.843C1002.7 153.843 1001.2 153.528 999.756 152.898C998.362 152.313 997.124 151.504 996.045 150.469C995.01 149.434 994.178 148.22 993.548 146.825C992.963 145.386 992.671 143.856 992.671 142.237C992.671 140.662 992.963 139.178 993.548 137.783C994.178 136.389 995.01 135.174 996.045 134.139C997.124 133.105 998.362 132.295 999.756 131.71C1001.2 131.08 1002.7 130.765 1004.28 130.765C1005.9 130.765 1007.4 131.08 1008.8 131.71C1010.19 132.295 1011.41 133.105 1012.44 134.139C1013.48 135.174 1014.29 136.389 1014.87 137.783C1015.46 139.178 1015.75 140.662 1015.75 142.237Z" fill="black"/>
<path d="M949.217 131.44C949.937 131.665 950.656 131.823 951.376 131.913C952.096 131.958 952.816 131.98 953.535 131.98C955.335 131.98 957.067 131.733 958.731 131.238C960.396 130.743 961.948 130.046 963.387 129.146C964.872 128.201 966.176 127.077 967.301 125.772C968.47 124.423 969.415 122.938 970.135 121.319L983.63 134.882C981.921 137.311 979.942 139.493 977.692 141.427C975.488 143.361 973.081 145.003 970.472 146.353C967.908 147.702 965.186 148.715 962.307 149.389C959.473 150.109 956.549 150.469 953.535 150.469C948.452 150.469 943.661 149.524 939.163 147.635C934.709 145.746 930.795 143.114 927.421 139.74C924.093 136.366 921.461 132.362 919.527 127.729C917.592 123.051 916.625 117.922 916.625 112.344C916.625 106.631 917.592 101.413 919.527 96.6892C921.461 91.9658 924.093 87.9396 927.421 84.6107C930.795 81.2818 934.709 78.6952 939.163 76.8508C943.661 75.0064 948.452 74.0842 953.535 74.0842C956.549 74.0842 959.496 74.4441 962.375 75.1639C965.254 75.8836 967.976 76.9183 970.54 78.2678C973.149 79.6174 975.578 81.2818 977.827 83.2612C980.077 85.1955 982.056 87.3773 983.765 89.8065L949.217 131.44ZM958.664 93.4503C957.809 93.1354 956.954 92.933 956.099 92.843C955.29 92.753 954.435 92.7081 953.535 92.7081C951.016 92.7081 948.632 93.1804 946.383 94.1251C944.178 95.0248 942.244 96.3294 940.58 98.0388C938.96 99.7482 937.678 101.818 936.733 104.247C935.789 106.631 935.316 109.33 935.316 112.344C935.316 113.019 935.339 113.784 935.384 114.638C935.474 115.493 935.586 116.37 935.721 117.27C935.901 118.125 936.104 118.957 936.329 119.767C936.553 120.576 936.846 121.296 937.206 121.926L958.664 93.4503Z" fill="black"/>
<path d="M906.369 149.119H887.812V48.1052H906.369V149.119Z" fill="black"/>
<path d="M873.711 149.119H869.258L862.105 139.2C860.351 140.775 858.484 142.259 856.504 143.654C854.57 145.003 852.523 146.195 850.364 147.23C848.205 148.22 845.978 149.007 843.684 149.592C841.434 150.176 839.14 150.469 836.801 150.469C831.718 150.469 826.927 149.614 822.428 147.905C817.975 146.195 814.061 143.721 810.687 140.482C807.358 137.198 804.727 133.195 802.792 128.471C800.858 123.748 799.891 118.372 799.891 112.344C799.891 106.721 800.858 101.57 802.792 96.8916C804.727 92.1682 807.358 88.1195 810.687 84.7456C814.061 81.3718 817.975 78.7626 822.428 76.9182C826.927 75.0288 831.718 74.0842 836.801 74.0842C839.14 74.0842 841.457 74.3766 843.751 74.9614C846.045 75.5462 848.272 76.3559 850.431 77.3906C852.591 78.4252 854.638 79.6398 856.572 81.0344C858.551 82.4289 860.396 83.9359 862.105 85.5554L869.258 76.9857H873.711V149.119ZM855.155 112.344C855.155 109.825 854.66 107.396 853.67 105.056C852.726 102.672 851.421 100.58 849.757 98.781C848.092 96.9366 846.135 95.4746 843.886 94.3949C841.682 93.2703 839.32 92.708 836.801 92.708C834.282 92.708 831.898 93.1354 829.648 93.9901C827.444 94.8448 825.51 96.1044 823.845 97.7688C822.226 99.4333 820.944 101.503 819.999 103.977C819.054 106.406 818.582 109.195 818.582 112.344C818.582 115.493 819.054 118.305 819.999 120.779C820.944 123.208 822.226 125.255 823.845 126.919C825.51 128.584 827.444 129.843 829.648 130.698C831.898 131.553 834.282 131.98 836.801 131.98C839.32 131.98 841.682 131.44 843.886 130.361C846.135 129.236 848.092 127.774 849.757 125.974C851.421 124.13 852.726 122.038 853.67 119.699C854.66 117.315 855.155 114.863 855.155 112.344Z" fill="black"/>
<path d="M795.773 91.2236L782.278 104.787C781.603 102.897 780.681 101.21 779.511 99.7257C778.341 98.1962 777.014 96.9142 775.53 95.8795C774.09 94.8449 772.516 94.0576 770.806 93.5178C769.097 92.978 767.343 92.7081 765.543 92.7081C763.024 92.7081 760.64 93.2254 758.39 94.26C756.186 95.2947 754.252 96.7567 752.587 98.6461C750.968 100.49 749.686 102.695 748.741 105.259C747.796 107.823 747.324 110.657 747.324 113.761C747.324 116.28 747.796 118.642 748.741 120.846C749.686 123.051 750.968 124.985 752.587 126.649C754.252 128.314 756.186 129.618 758.39 130.563C760.64 131.508 763.024 131.98 765.543 131.98C767.343 131.98 769.074 131.733 770.739 131.238C772.403 130.743 773.955 130.046 775.395 129.146C776.879 128.201 778.184 127.077 779.309 125.772C780.478 124.423 781.423 122.938 782.143 121.319L795.638 134.882C793.929 137.311 791.949 139.493 789.7 141.427C787.496 143.361 785.089 145.003 782.48 146.353C779.916 147.702 777.194 148.715 774.315 149.389C771.481 150.109 768.557 150.469 765.543 150.469C760.46 150.469 755.669 149.524 751.17 147.635C746.717 145.701 742.803 143.069 739.429 139.74C736.1 136.411 733.469 132.52 731.534 128.066C729.6 123.613 728.633 118.844 728.633 113.761C728.633 108.228 729.6 103.055 731.534 98.2412C733.469 93.4278 736.1 89.2442 739.429 85.6904C742.803 82.0916 746.717 79.2575 751.17 77.1882C755.669 75.1189 760.46 74.0842 765.543 74.0842C768.557 74.0842 771.504 74.4666 774.383 75.2313C777.307 75.9961 780.073 77.1207 782.682 78.6052C785.337 80.0448 787.766 81.8217 789.97 83.936C792.219 86.0503 794.154 88.4795 795.773 91.2236Z" fill="black"/>
<path d="M699.821 149.119H657.715V130.766H699.821C701.081 130.766 702.16 130.316 703.06 129.416C703.96 128.516 704.409 127.437 704.409 126.177C704.409 124.873 703.96 124.018 703.06 123.613C702.16 123.208 701.081 123.006 699.821 123.006H680.657C677.463 123.006 674.472 122.398 671.683 121.184C668.894 119.969 666.464 118.327 664.395 116.258C662.326 114.144 660.684 111.692 659.469 108.903C658.3 106.114 657.715 103.122 657.715 99.9283C657.715 96.7343 658.3 93.7428 659.469 90.9537C660.684 88.1646 662.326 85.7354 664.395 83.6661C666.464 81.5968 668.894 79.9774 671.683 78.8077C674.472 77.5931 677.463 76.9858 680.657 76.9858H717.972V95.3398H680.657C679.398 95.3398 678.318 95.7896 677.418 96.6893C676.519 97.589 676.069 98.6687 676.069 99.9283C676.069 101.233 676.519 102.357 677.418 103.302C678.318 104.202 679.398 104.652 680.657 104.652H699.821C702.97 104.652 705.939 105.192 708.728 106.271C711.517 107.306 713.946 108.768 716.016 110.657C718.085 112.547 719.727 114.818 720.941 117.472C722.156 120.127 722.763 123.028 722.763 126.177C722.763 129.371 722.156 132.363 720.941 135.152C719.727 137.896 718.085 140.325 716.016 142.439C713.946 144.509 711.517 146.15 708.728 147.365C705.939 148.535 702.97 149.119 699.821 149.119Z" fill="black"/>
<path d="M600.828 149.119H582.406V76.8506H586.86L592.933 83.8683C595.902 81.1692 599.253 79.0998 602.987 77.6603C606.766 76.1758 610.702 75.4336 614.796 75.4336C619.204 75.4336 623.365 76.2883 627.279 77.9977C631.193 79.6622 634.611 81.9789 637.536 84.9479C640.46 87.872 642.754 91.3133 644.418 95.272C646.128 99.1857 646.982 103.369 646.982 107.823V149.119H628.561V107.823C628.561 105.933 628.201 104.157 627.481 102.492C626.762 100.783 625.772 99.2982 624.512 98.0386C623.253 96.779 621.791 95.7893 620.126 95.0696C618.462 94.3498 616.685 93.9899 614.796 93.9899C612.861 93.9899 611.039 94.3498 609.33 95.0696C607.62 95.7893 606.136 96.779 604.876 98.0386C603.617 99.2982 602.627 100.783 601.907 102.492C601.188 104.157 600.828 105.933 600.828 107.823V149.119Z" fill="black"/>
<path d="M572.223 112.344C572.223 117.742 571.256 122.781 569.321 127.459C567.387 132.092 564.755 136.119 561.427 139.538C558.098 142.911 554.184 145.588 549.685 147.567C545.232 149.502 540.441 150.469 535.313 150.469C530.229 150.469 525.438 149.502 520.94 147.567C516.486 145.588 512.573 142.911 509.199 139.538C505.87 136.119 503.238 132.092 501.304 127.459C499.37 122.781 498.402 117.742 498.402 112.344C498.402 106.856 499.37 101.773 501.304 97.0941C503.238 92.4156 505.87 88.3894 509.199 85.0155C512.573 81.5967 516.486 78.9201 520.94 76.9857C525.438 75.0513 530.229 74.0842 535.313 74.0842C540.441 74.0842 545.232 75.0064 549.685 76.8507C554.184 78.6502 558.098 81.2368 561.427 84.6107C564.755 87.9396 567.387 91.9657 569.321 96.6892C571.256 101.368 572.223 106.586 572.223 112.344ZM553.667 112.344C553.667 109.375 553.172 106.698 552.182 104.314C551.237 101.885 549.933 99.8157 548.268 98.1062C546.604 96.3518 544.647 95.0247 542.398 94.125C540.194 93.1803 537.832 92.708 535.313 92.708C532.793 92.708 530.409 93.1803 528.16 94.125C525.956 95.0247 524.021 96.3518 522.357 98.1062C520.737 99.8157 519.455 101.885 518.511 104.314C517.566 106.698 517.094 109.375 517.094 112.344C517.094 115.133 517.566 117.72 518.511 120.104C519.455 122.488 520.737 124.557 522.357 126.312C524.021 128.066 525.956 129.461 528.16 130.496C530.409 131.485 532.793 131.98 535.313 131.98C537.832 131.98 540.194 131.508 542.398 130.563C544.647 129.618 546.604 128.291 548.268 126.582C549.933 124.872 551.237 122.803 552.182 120.374C553.172 117.945 553.667 115.268 553.667 112.344Z" fill="black"/>
<path d="M469.723 112.344C469.723 109.825 469.228 107.396 468.239 105.056C467.294 102.672 465.989 100.58 464.325 98.781C462.661 96.9366 460.704 95.4746 458.454 94.3949C456.25 93.2703 453.888 92.708 451.369 92.708C448.85 92.708 446.466 93.1354 444.217 93.9901C442.012 94.8448 440.078 96.1044 438.414 97.7688C436.794 99.4333 435.512 101.503 434.567 103.977C433.623 106.406 433.15 109.195 433.15 112.344C433.15 115.358 433.623 118.08 434.567 120.509C435.512 122.893 436.794 124.94 438.414 126.649C440.078 128.359 442.012 129.686 444.217 130.63C446.466 131.53 448.85 131.98 451.369 131.98C453.888 131.98 456.25 131.44 458.454 130.361C460.704 129.236 462.661 127.774 464.325 125.974C465.989 124.13 467.294 122.038 468.239 119.699C469.228 117.315 469.723 114.863 469.723 112.344ZM488.28 140.01C488.28 145.093 487.312 149.862 485.378 154.315C483.444 158.769 480.79 162.66 477.416 165.989C474.087 169.318 470.173 171.949 465.675 173.884C461.221 175.818 456.453 176.785 451.369 176.785L442.125 176.65V158.229L451.234 158.364C454.113 158.364 456.565 157.981 458.589 157.217C460.614 156.497 462.323 155.485 463.718 154.18C465.112 152.921 466.214 151.459 467.024 149.794C467.879 148.13 468.554 146.375 469.048 144.531C468.329 145.7 467.294 146.668 465.944 147.432C464.595 148.152 463.088 148.737 461.423 149.187C459.804 149.682 458.095 150.019 456.295 150.199C454.541 150.379 452.899 150.469 451.369 150.469C446.286 150.469 441.495 149.592 436.997 147.837C432.543 146.083 428.629 143.586 425.255 140.347C421.927 137.063 419.295 133.06 417.361 128.336C415.426 123.613 414.459 118.282 414.459 112.344C414.459 106.901 415.426 101.84 417.361 97.1615C419.295 92.4831 421.927 88.4344 425.255 85.0155C428.629 81.5967 432.543 78.9201 436.997 76.9857C441.495 75.0513 446.286 74.0842 451.369 74.0842C453.709 74.0842 456.025 74.3766 458.319 74.9614C460.614 75.5462 462.841 76.3559 465 77.3906C467.159 78.4252 469.206 79.6398 471.14 81.0344C473.12 82.4289 474.964 83.9359 476.673 85.5554L483.826 76.9857H488.28V140.01Z" fill="black"/>
<path d="M404.2 149.119H399.746L392.593 139.2C390.839 140.775 388.972 142.259 386.993 143.654C385.058 145.003 383.012 146.195 380.852 147.23C378.693 148.22 376.466 149.007 374.172 149.592C371.923 150.177 369.628 150.469 367.289 150.469C362.206 150.469 357.415 149.614 352.916 147.905C348.463 146.195 344.549 143.721 341.175 140.482C337.846 137.198 335.215 133.195 333.28 128.471C331.346 123.748 330.379 118.372 330.379 112.344C330.379 106.721 331.346 101.57 333.28 96.8917C335.215 92.1682 337.846 88.1196 341.175 84.7457C344.549 81.3718 348.463 78.7627 352.916 76.9183C357.415 75.0289 362.206 74.0842 367.289 74.0842C369.628 74.0842 371.945 74.3766 374.239 74.9614C376.534 75.5462 378.76 76.356 380.92 77.3906C383.079 78.4253 385.126 79.6399 387.06 81.0344C389.04 82.429 390.884 83.936 392.593 85.5554L399.746 76.9858H404.2V149.119ZM385.643 112.344C385.643 109.825 385.148 107.396 384.159 105.056C383.214 102.672 381.909 100.58 380.245 98.7811C378.58 96.9367 376.624 95.4747 374.374 94.395C372.17 93.2704 369.808 92.7081 367.289 92.7081C364.77 92.7081 362.386 93.1354 360.137 93.9901C357.932 94.8449 355.998 96.1044 354.333 97.7689C352.714 99.4333 351.432 101.503 350.487 103.977C349.543 106.406 349.07 109.195 349.07 112.344C349.07 115.493 349.543 118.305 350.487 120.779C351.432 123.208 352.714 125.255 354.333 126.919C355.998 128.584 357.932 129.843 360.137 130.698C362.386 131.553 364.77 131.98 367.289 131.98C369.808 131.98 372.17 131.44 374.374 130.361C376.624 129.236 378.58 127.774 380.245 125.975C381.909 124.13 383.214 122.038 384.159 119.699C385.148 117.315 385.643 114.863 385.643 112.344Z" fill="black"/>
<path d="M296.775 149.119H278.354V76.8504H282.807L288.88 85.4201C291.849 82.721 295.223 80.6516 299.002 79.2121C302.78 77.7276 306.694 76.9854 310.743 76.9854H327.005V95.3393H310.743C308.808 95.3393 306.987 95.6992 305.277 96.4189C303.568 97.1387 302.083 98.1284 300.824 99.388C299.564 100.648 298.574 102.132 297.855 103.841C297.135 105.551 296.775 107.373 296.775 109.307V149.119Z" fill="black"/>
<path d="M264.25 149.119H259.797L252.644 139.2C250.89 140.775 249.023 142.259 247.043 143.654C245.109 145.003 243.062 146.195 240.903 147.23C238.744 148.22 236.517 149.007 234.223 149.592C231.973 150.176 229.679 150.469 227.34 150.469C222.257 150.469 217.466 149.524 212.967 147.635C208.514 145.7 204.6 143.046 201.226 139.672C197.897 136.254 195.266 132.227 193.331 127.594C191.397 122.915 190.43 117.832 190.43 112.344C190.43 106.901 191.397 101.84 193.331 97.1614C195.266 92.483 197.897 88.4343 201.226 85.0155C204.6 81.5966 208.514 78.92 212.967 76.9856C217.466 75.0513 222.257 74.0841 227.34 74.0841C228.959 74.0841 230.624 74.219 232.333 74.4889C234.088 74.7589 235.775 75.2087 237.394 75.8385C239.059 76.4233 240.611 77.2105 242.05 78.2002C243.49 79.1899 244.704 80.4045 245.694 81.844V48.1052H264.25V149.119ZM245.694 112.344C245.694 109.825 245.199 107.396 244.209 105.056C243.265 102.672 241.96 100.58 240.296 98.7809C238.631 96.9365 236.674 95.4745 234.425 94.3949C232.221 93.2702 229.859 92.7079 227.34 92.7079C224.821 92.7079 222.437 93.1578 220.187 94.0575C217.983 94.9572 216.049 96.2617 214.384 97.9712C212.765 99.6356 211.483 101.682 210.538 104.112C209.593 106.541 209.121 109.285 209.121 112.344C209.121 114.998 209.593 117.517 210.538 119.901C211.483 122.286 212.765 124.377 214.384 126.177C216.049 127.976 217.983 129.393 220.187 130.428C222.437 131.463 224.821 131.98 227.34 131.98C229.859 131.98 232.221 131.44 234.425 130.36C236.674 129.236 238.631 127.774 240.296 125.974C241.96 124.13 243.265 122.038 244.209 119.699C245.199 117.315 245.694 114.863 245.694 112.344Z" fill="black"/>
<g clip-path="url(#clip0_4931_908)">
<path d="M154.43 92.4072C154.43 92.4072 152.123 96.1193 150.079 98.5142C149.943 98.674 149.808 98.8273 149.675 98.974C149.43 99.2396 149.153 99.5263 148.864 99.8168C147.612 101.076 146.139 102.409 146.139 102.409C146.139 102.409 146.196 102.142 146.295 101.667C146.331 101.496 146.372 101.294 146.417 101.071C146.427 101.025 146.436 100.978 146.446 100.93C147.099 97.713 148.596 89.9195 148.936 84.4284C149.014 83.1353 149.044 81.7277 149.037 80.2726C149 72.4164 147.908 63.1847 147.908 63.1847C147.908 63.1847 138.192 62.1237 127.232 55.6102C121.778 52.3782 120.147 46.3281 120.147 46.3281C120.147 46.3281 117.351 47.7649 116.979 52.4271C116.947 52.8117 116.932 53.1816 116.931 53.5348C116.929 54.2412 116.981 54.8797 117.058 55.4314C117.077 55.5693 117.098 55.7021 117.119 55.8284C117.162 56.0823 117.21 56.3129 117.257 56.5179C117.422 57.2374 117.589 57.6475 117.589 57.6475C117.589 57.6475 111.327 54.6528 105.407 48.734C104.895 48.2239 104.404 47.7065 103.932 47.1855C98.0276 40.6742 95.1432 33.4937 94.2279 30.8879C93.9996 30.2384 93.8939 29.8728 93.8939 29.8728C93.8939 29.8728 88.9768 39.0564 93.4359 49.8468C96.7543 57.8767 103.686 62.8899 112.516 68.5744C121.286 74.2196 133.821 78.7497 133.566 78.7176C133.566 78.7176 134.156 87.4319 133.566 99.0192C133.036 110.598 129.077 122.865 119.749 133.883C110.406 144.896 94.0324 157.208 94.0324 157.208C94.0324 157.208 93.9347 157.139 93.7538 157.01C90.9408 154.259 70.3813 134.122 66.5502 129.23C63.568 125.398 61.7192 121.378 65.0879 117.856C67.3174 115.504 70.7088 114.517 72.7261 114.103C80.0623 117.032 85.0086 120.464 85.0086 124.47C85.0086 128.477 79.8355 133.884 79.8355 133.884C79.8355 133.884 88.0972 137.006 93.1616 133.63C97.6171 130.632 98.4033 127.934 98.5229 127.343C98.4186 129.012 98.1502 130.663 97.1299 133.181C96.0286 135.763 92.2135 138.777 92.2135 138.777C92.2135 138.777 103.08 136.959 108.031 130.904C111.899 126.193 112.678 119.382 112.678 119.382C112.678 119.382 109.191 121.488 107.273 121.785C101.55 122.621 99.3229 121.802 93.7699 114.244C89.9905 109.127 88.5713 101.477 84.9473 96.868C82.9504 94.3373 81.0564 93.2296 80.0565 92.7815C81.5304 93.0895 84.4944 94.0199 88.4466 96.8227C94.1856 100.916 96.6208 108.257 104.53 109.679C106.219 109.996 108.701 109.994 109.685 109.973C109.623 110.633 109.094 111.92 108.566 113.11C107.27 116.016 104.181 117.799 104.181 117.799C104.181 117.799 104.351 117.761 104.639 117.674C105.589 117.65 110.729 117.409 113.813 114.868C116.299 112.681 117.195 110.04 117.195 110.04C117.195 110.04 117.642 113.728 117.155 116.688C116.525 120.521 114.41 124.87 114.41 124.87C114.41 124.87 114.733 124.829 115.322 124.623C118.463 123.652 128.693 119.443 129.545 105.58C130.38 92.5261 125.934 88.6148 125.934 88.6148C125.934 88.6148 123.867 93.1442 118.779 92.9267C111.153 92.6086 101.356 85.4318 101.356 85.4318L109.408 80.4251H109.407C107.477 79.942 104.946 79.2014 102.066 78.0462C100.693 77.4894 99.1822 76.8181 97.5748 76.0125C92.6971 73.5373 90.7549 71.6473 86.3016 69.0838C86.3002 69.083 86.2987 69.0823 86.2973 69.0816C86.1682 69.0057 86.0303 68.9276 85.8969 68.8503C88.071 65.0506 90.2444 61.2509 92.4185 57.4513C88.0586 50.5357 83.2144 46.1792 79.9507 43.6697C78.3127 42.4095 73.3241 38.7973 65.8544 36.1718C59.4962 33.9367 55.7606 34.0651 50.3017 31.2717C45.4247 28.7739 42.7145 25.2296 40.7147 22.9996C40.6848 24.567 40.8599 27.1043 42.1814 29.7459C42.98 31.341 44.4759 33.5317 48.94 36.3754C53.6281 39.3614 55.2392 39.0221 62.4565 42.2095C67.1315 44.2739 70.2267 45.667 73.5881 48.4414C76.7855 51.08 78.8866 53.8647 80.1761 55.8415C78.522 58.5998 76.8679 61.3575 75.2138 64.1158C74.0578 63.7276 72.8406 63.3525 71.5555 63.0001C71.9348 59.2697 72.3147 55.5401 72.694 51.8098C69.8657 51.7718 66.1637 51.6332 61.8439 51.2274C52.4021 50.3416 45.3992 48.5866 43.5416 48.2378C37.7552 47.1505 29.5386 44.8876 19.6797 39.6314C25.1387 46.3179 30.7107 49.587 34.2034 51.2282C38.7047 53.3422 42.7714 54.1675 50.2499 55.6853C55.6775 56.7872 60.216 57.4075 63.3383 57.768C62.9721 59.2938 62.606 60.8204 62.2399 62.3462C60.8498 62.3586 59.3306 62.4849 57.4548 62.7739C55.1458 63.0417 52.6318 63.4868 49.9633 64.2151C49.2864 64.3997 48.6293 64.5982 47.981 64.8039C44.885 65.7139 41.9845 67.0223 39.4596 68.3891C36.2914 70.0747 33.6892 71.8801 31.658 73.4752C30.7479 74.1823 30.2395 74.6267 30.2395 74.6267C30.2395 74.6267 30.3584 74.5954 30.575 74.5406C31.7025 74.2582 35.476 73.3672 38.9206 73.1585C39.0534 73.1505 39.1854 73.1432 39.3166 73.1374C42.856 72.9805 43.4125 73.2833 43.4125 73.2833C43.4125 73.2833 34.5564 75.7936 29.7793 82.1028C29.3731 82.6406 28.9887 83.1769 28.6255 83.7096C24.6318 89.5759 23.1819 95.0721 22.6925 97.586C22.6699 97.7006 22.6502 97.8086 22.6312 97.91C22.5948 98.1136 22.5649 98.2909 22.5415 98.4413C22.4832 98.8171 22.4635 99.0199 22.4635 99.0199L28.2288 97.3715C27.1691 99.7963 26.0408 103.392 25.7301 106.452C24.8958 115.009 26.5039 117.721 26.5047 117.721C26.5047 117.721 27.746 111.529 31.6106 107.455L31.8776 107.178L32.011 107.04C32.0956 107.887 32.208 108.77 32.3524 109.688C32.4246 110.147 32.5048 110.615 32.593 111.091C32.7703 112.043 32.9818 113.028 33.2326 114.043C33.609 115.566 34.0736 117.158 34.6432 118.811C34.7073 118.997 34.781 119.192 34.8605 119.394C34.8787 119.44 34.897 119.486 34.9159 119.533C34.9947 119.728 35.0793 119.929 35.1697 120.137C38.4218 127.573 49.4017 143.097 49.4017 143.097L49.9633 136.598L49.964 136.6C49.964 136.6 50.8268 137.792 51.8165 138.933C56.6767 144.537 65.4358 151.541 65.4358 151.541C71.6948 156.545 75.0271 158.9 77.8437 161.411C79.2003 162.622 83.0299 166.153 83.9598 167.034C83.9853 167.059 84.0108 167.083 84.0364 167.107C84.7343 167.768 85.4097 168.415 86.0588 169.04C86.0756 169.057 86.0916 169.073 86.1084 169.089C90.7731 173.59 94.0303 176.999 94.0303 176.999C96.5245 174.665 98.5353 172.751 99.9217 171.423C101.781 169.642 102.609 168.829 104.554 166.984C106.129 165.49 107.317 164.383 108.951 162.863C112.439 159.618 114.183 157.996 116.629 155.736C126.589 146.535 131.57 141.934 136.682 135.92C136.682 135.92 141.979 129.445 146.452 122.248C147.983 119.784 149.221 117.195 150.221 114.614C150.304 114.399 150.386 114.184 150.466 113.969C150.706 113.325 150.932 112.681 151.144 112.041C151.215 111.828 151.284 111.615 151.352 111.402C151.488 110.976 151.617 110.553 151.741 110.133C151.988 109.291 152.213 108.459 152.417 107.641C152.672 106.619 152.894 105.62 153.089 104.653C153.089 104.653 153.147 104.364 153.203 104.076C153.456 102.759 153.939 98.3624 154.43 92.4057V92.4072ZM92.4768 85.307C91.7526 85.1318 88.9841 84.3131 86.996 81.6335C85.7145 79.9063 84.6351 76.7254 84.6351 76.7247C84.6351 76.7247 90.0153 79.7925 92.4462 80.7316C96.1642 82.1808 98.2406 82.345 98.2406 82.345C98.2406 82.345 95.5574 85.6229 92.4768 85.307Z" fill="#111111"/>
<path d="M105.807 166.102C124.03 149.334 129.319 144.908 136.683 135.92C141.118 130.505 143.392 127.171 146.452 122.249C154.62 109.106 154.43 92.4065 154.43 92.4065C154.43 92.4065 151.804 96.6302 149.674 98.9733C148.369 100.39 146.137 102.409 146.137 102.409C146.137 102.409 148.497 91.5046 148.935 84.4277C149.441 76.1512 147.908 63.184 147.908 63.184C147.908 63.184 138.192 62.123 127.231 55.6095C121.777 52.3776 120.147 46.3274 120.147 46.3274C120.147 46.3274 117.35 47.7643 116.978 52.4265C116.719 55.5037 117.588 57.6476 117.588 57.6476C117.588 57.6476 111.326 54.6529 105.406 48.7341C96.9076 40.2664 93.8933 29.8744 93.8926 29.8729C93.8926 29.8751 94.3426 41.1034 100.012 49.1566C108.417 61.0781 126.089 67.7492 126.089 67.7492C126.089 67.7492 123.359 64.5413 122.639 62.5514C121.694 59.8587 121.695 56.5107 121.695 56.5107C121.695 56.5107 127.72 61.853 131.64 63.8284C135.603 65.8308 143.946 66.6867 143.946 66.6867C143.946 66.6867 145.765 83.4112 143.315 95.6801C141.622 104.368 138.047 115.361 138.047 115.361C138.047 115.361 139.673 114.408 143.315 111.841C146.095 109.883 149.238 107.208 149.238 107.208C149.238 107.208 143.905 122.155 129.342 136.518C119.941 145.766 108.632 154.975 102.879 161.152C99.0328 165.264 95.0245 170.441 95.0245 170.441L94.0312 176.999C96.3402 174.85 100.53 170.958 105.807 166.102H105.807Z" fill="#0E6EFF"/>
<path fill-rule="evenodd" clip-rule="evenodd" d="M92.6619 85.3471C92.6619 85.3471 88.9526 85.8849 85.6137 83.8438C82.9269 82.202 82.528 80.787 81.5193 78.3425C80.6952 76.3518 78.7129 74.3531 78.7129 74.3531L84.6364 76.7247C84.6364 76.7247 85.7158 79.9062 86.9972 81.6335C89.3012 84.7392 92.6611 85.3478 92.6611 85.3478L92.6619 85.3471Z" fill="#0E6EFF"/>
<path d="M55.3033 115.062C50.9288 121.518 61.3479 130.634 68.4362 137.136C77.3776 145.316 94.0762 157.326 94.0762 157.326C94.0762 157.326 70.6642 134.484 66.5502 129.231C63.568 125.399 61.7191 121.379 65.0879 117.857C67.3174 115.505 70.7095 114.518 72.726 114.103C80.0623 117.033 85.0085 120.464 85.0085 124.471C85.0085 128.478 79.8355 133.885 79.8355 133.885C79.8355 133.885 91.7205 127.848 85.743 118.435C81.4356 111.627 68.6382 107.88 64.3389 106.395C60.0402 104.905 53.9825 104.069 53.9825 104.069C53.9825 104.069 55.0196 102.627 58.7391 100.043C64.3389 96.1391 70.9421 95.9647 70.9421 95.9647C70.9421 95.9647 60.5953 95.0008 53.5172 99.1142C46.4333 103.235 44.4707 108.139 44.4707 108.139C44.4707 108.139 53.9891 109.152 62.9947 111.205C61.0219 111.511 57.0756 112.44 55.3048 115.062H55.3033Z" fill="#0E6EFF"/>
<path fill-rule="evenodd" clip-rule="evenodd" d="M125.928 88.6151C125.928 88.6151 127.323 94.601 124.43 98.3977C121.443 102.364 124.43 106.106 124.43 111.716C124.43 117.326 114.404 124.87 114.404 124.87C114.404 124.87 128.532 121.976 129.54 105.58C130.374 92.5264 125.928 88.6151 125.928 88.6151Z" fill="#0E6EFF"/>
<path d="M88.4509 96.8222C82.6856 92.7336 79.0215 92.6292 79.0215 92.6292C79.0215 92.6292 81.2036 90.9093 85.185 92.1921C89.2983 93.5202 92.7867 97.306 97.6593 101.776C105.496 108.955 113.716 106.38 113.716 106.38C113.716 106.38 112.262 112.558 109.492 115C107.032 117.166 104.185 117.8 104.185 117.8C104.185 117.8 107.274 116.017 108.57 113.11C109.099 111.921 109.627 110.634 109.689 109.973C108.706 109.994 106.224 109.995 104.534 109.679C96.6251 108.258 94.1899 100.915 88.4509 96.8229V96.8222Z" fill="#0E6EFF"/>
<path d="M99.1595 79.5937C106.071 82.1389 109.396 80.4285 109.403 80.4248C109.403 80.4248 109.403 80.4248 109.402 80.4248C109.388 80.4219 106.437 79.8213 102.059 78.0452C101.141 77.6723 99.511 77.0031 97.5696 76.0114C92.8195 73.5866 91.6898 72.0885 86.0842 68.9587C86.0106 68.9171 85.9712 68.893 85.891 68.8485L83.7344 72.4986C92.4512 76.7682 92.6102 77.1907 99.158 79.5937H99.1595Z" fill="#0E6EFF"/>
<path d="M81.5523 157.297C71.5234 148.284 65.9828 144.91 57.0953 135.933C53.0432 131.84 50.0099 128.315 48.2413 126.189L47.0307 133.822C47.0307 133.822 41.7708 127.46 38.9884 117.346C36.1915 107.23 38.1016 97.1322 38.1016 97.1322C38.1016 97.1322 35.0589 99.4061 33.2611 101.651C31.2183 104.205 29.3745 106.109 29.3745 106.109C29.3745 106.109 29.3811 103.104 31.599 98.2889C32.8483 95.5889 37.637 90.3385 37.637 90.3385C37.637 90.3385 34.6074 90.3283 33.2611 90.6538C30.1608 91.4222 27.9217 92.1752 27.9217 92.1752C27.9217 92.1752 31.2832 86.1725 37.637 81.4935C44.745 76.2592 56.4032 73.236 56.4032 73.236C56.4032 73.236 54.275 72.1706 52.1505 71.4898C50.0537 70.8184 47.1138 70.439 47.1138 70.439C47.1138 70.439 50.1799 68.1754 61.4209 66.8662C65.6276 66.3766 69.3151 66.848 72.9653 67.9426L75.2138 64.113C74.0432 63.7284 72.8705 63.2746 71.5555 62.9973C71.9348 59.2669 72.3148 55.5373 72.694 51.807C69.8657 51.769 66.1637 51.6304 61.8439 51.2246C52.4021 50.3387 45.3992 48.5838 43.5416 48.235C37.7552 47.1477 29.5386 44.8848 19.6797 39.6286C25.1387 46.3151 30.7107 49.5842 34.2034 51.2254C38.7047 53.3394 42.7714 54.1647 50.2499 55.6825C55.6775 56.7844 60.216 57.4047 63.3383 57.7651C62.9722 59.291 62.606 60.8176 62.2399 62.3434C60.3262 62.3938 55.6913 62.6258 49.9633 64.2122C44.6173 65.6929 40.5536 67.7295 38.0556 69.1583C34.7642 71.0417 32.1554 73.0112 30.2395 74.6239C30.2395 74.6239 35.1136 73.325 39.3166 73.1346C42.856 72.9777 43.4125 73.2805 43.4125 73.2805C43.4125 73.2805 34.5564 75.7908 29.7793 82.0999C23.2774 90.6997 22.4642 99.0178 22.4642 99.0178L28.2295 97.3694C27.1698 99.7943 26.0416 103.39 25.7309 106.45C24.8965 115.008 26.5054 117.719 26.5054 117.719C26.5054 117.719 27.7467 111.527 31.6114 107.453L32.0118 107.038C32.3516 110.426 33.1254 114.401 34.6439 118.809C36.9668 125.513 49.4024 143.095 49.4024 143.095L49.964 136.596C52.1089 139.125 55.3332 142.778 59.4991 146.944C62.1378 149.583 64.4899 151.763 75.0876 160.863C75.0876 160.863 82.3495 167.099 94.031 176.998C94.3621 174.811 94.6932 172.626 95.0243 170.439C89.4465 164.546 84.6811 160.107 81.5523 157.296V157.297Z" fill="#0E6EFF"/>
</g>
<defs>
<clipPath id="clip0_4931_908">
<rect width="134.75" height="154" fill="white" transform="translate(19.6797 23)"/>
</clipPath>
</defs>
</svg>
